<svg width="572" height="86" viewBox="117 176 572 86" xmlns="http://www.w3.org/2000/svg" xmlns:xlink="http://www.w3.org/1999/xlink"><defs><path id="a" d="M.716 58h68.75V.066H.716V58z"/><path id="c" d="M97.362.338H.95v42.215h96.41z"/></defs><g fill="#FFF" fill-rule="evenodd"><g transform="translate(195 203.662)"><mask id="b"><use xlink:href="#a"/></mask><path d="M1.63 47.984c6.71 7.736 16.002 13.352 26.186 7.748 6.516-3.59 11.63-10.667 16.214-16.31 8.863-10.916 17.063-22.44 24.835-34.16 2.532-3.82-3.608-7.366-6.12-3.574-6.473 9.756-13.276 19.33-20.446 28.58-4.59 5.922-9.348 11.86-14.886 16.927-2.394 2.194-4.305 3.186-7.607 3.6-5.857.732-9.71-3.838-13.165-7.825-3-3.463-7.99 1.575-5.013 5.014" mask="url(#b)"/></g><g transform="translate(212 176.662)"><mask id="d"><use xlink:href="#c"/></mask><path d="M27.28 19.81c-5.352 1.295-14.04 5.277-18.803.907-4.305-3.944 12.34-9.533 14.638-10.073C36.06 7.594 49.778 6.937 63.02 7.74c7.16.437 27.392 1.736 27.185 12.452-.107 5.562-7.714 9.657-11.896 11.69-7.02 3.417-15.185 4.198-22.84 3.302-4.533-.536-4.483 6.562 0 7.082 14.68 1.724 39.744-4.148 41.824-22.074.785-6.794-5.412-12.11-10.92-14.66C78.744 1.996 69.98 1.076 61.684.57c-9.533-.578-19.15-.037-28.61 1.18C24.6 2.84 15.998 4.3 8.584 8.766 1.994 12.73-2.402 20.353 4.258 26.462c6.775 6.21 17.27 2.03 24.904.18 4.44-1.08 2.554-7.913-1.885-6.833" mask="url(#d)"/></g><path d="M444.214 245.717c.467 0 .94-.202 1.41-.604.466-.4.82-.932 1.043-1.59l4.223-12.26c.224-.664.28-1.196.16-1.598-.126-.398-.464-.6-1.035-.6h-41.453c-.62 0-1.11.202-1.486.6-.376.402-.675.934-.905 1.597l-4.22 12.26c-.224.66-.266 1.19-.12 1.59.145.403.43.605.86.605h41.525zm11.826-25.51c.996 0 1.897.19 2.712.564.816.38 1.472.914 1.967 1.6.5.68.8 1.52.905 2.512.106.993-.05 2.108-.475 3.333l-6.32 18.355c-.436 1.275-1.053 2.408-1.844 3.4-.792.993-1.67 1.83-2.637 2.518-.967.685-1.994 1.206-3.055 1.558-1.068.357-2.096.528-3.09.528h-47.41c-.99 0-1.9-.17-2.72-.528-.824-.352-1.486-.873-1.98-1.558-.495-.687-.786-1.525-.87-2.517-.084-.993.096-2.126.533-3.4l6.323-18.356c.437-1.275 1.04-2.41 1.808-3.4.766-.992 1.632-1.832 2.604-2.517.966-.683 1.985-1.207 3.05-1.56 1.068-.352 2.098-.53 3.09-.53h47.406zm60.028 25.51l8.787-25.51h9.21l-11.835 34.365h-55.273c-.992 0-1.904-.17-2.727-.528-.82-.352-1.477-.873-1.977-1.558-.497-.687-.784-1.525-.873-2.517-.08-.995.096-2.128.54-3.403l9.075-26.36h9.14l-8.026 23.315c-.23.658-.275 1.19-.13 1.59.15.402.435.604.86.604h43.227zm25.088-25.51h63.068l-3.052 8.857h-27l-8.786 25.508h-9.21l8.78-25.508H538.1m76.903 29.994s20.247-18.423 0-36.67l73.747 18.748-73.747 17.922zM117 240.308l73.746 18.75c-20.246-18.25 0-36.67 0-36.67L117 240.308m132.663 12.498c5.082-1.084 9.59-3.948 13.582-7.396.712 2.828 3.17 5.267 5.952 6.54 8.392 3.844 15.673-1.965 21.135-7.73.827 3.24 2.78 5.75 6.354 7.537 6.65 3.332 13.896 1.027 18.83-3.78.41 1.608 1.486 3.146 2.983 4.184 9.38 6.48 26.135 2.01 35.014-3.844.643 1.474 1.632 2.75 3.256 3.776 7.672 4.846 15.643 1.494 21.955-3.944 3.47-2.987-1.566-7.98-5.01-5.014-2.853 2.46-5.894 4.335-9.767 4.343-1.926.004-4.236-1.126-4.244-3.15-.007-1.17.215-2.373.567-3.57.776-1.33 1.49-2.606 2.21-4.03 1.385-2.75 2.683-5.324 4.127-8.044h17.865c4.574 0 4.574-7.085 0-7.085 0 .004-14.003.004-14.003.004.605-1.06 1.187-1.99 1.81-3.04 2.367-3.976-3.566-7.304-6.117-3.577-1.463 2.14-2.884 4.355-4.278 6.615 0 0-6.75 0-6.75-.004-4.57 0-4.57 7.086 0 7.086h2.587c-1.51 2.938-2.654 5.814-3.692 8.897-.253.436-.517.926-.774 1.36-2.868 4.837-9.89 6.824-14.938 7.966-3.24.73-13.417 2.77-15.948-.652-2.375-3.217 3.202-13.034 4.57-15.914.256-.54.673-1.113.937-1.65l18.263-.007c4.57 0 4.57-7.086 0-7.086 0 0-8.197.108-14.77.108.598-1.054 1.364-2.256 1.993-3.28 2.36-3.933-3.72-7.454-6.116-3.577-1.345 2.248-2.735 4.474-4.026 6.75h-6.41c-4.57 0-4.57 7.085 0 7.085h2.61c-.642 1.16-1.41 2.404-2.05 3.565-3.016 5.413-5.448 11.733-11.806 13.694-2.81.864-6.83-.128-8.38-2.736-1.053-1.77-.122-4.574.41-6.342.31-1.03.885-2.405 1.352-3.382 1.785-2.244 4.665-5.478 4.455-8.06-.202-2.51-2.906-4.63-5.33-3.06-2.41 1.564-4.203 4.76-5.53 7.88-1.135 1.64-2.56 3.588-3.82 5.135-3.406 4.176-7.49 9.825-13.165 10.54-3.557.45-6.43-1.665-5.68-5.226.227-1.092.958-2.5 1.476-3.505 1.88-2.184 3.643-4.48 5.313-6.817.988-1.388 2.49-3.24 2.432-5.05-.065-2.12-1.574-3.285-3.543-3.54-2.324-.3-4.194 2.836-5.308 4.28-1.756 2.278-3.414 4.596-4.79 7.078-.558.636-.73.855-1.3 1.475-4.4 4.82-9.79 9.964-16.37 11.36-4.472.954-2.576 7.784 1.883 6.838"/></g></svg>